<mxfile host="app.diagrams.net" modified="2022-06-04T01:22:25.728Z" agent="5.0 (Windows NT 10.0; Win64; x64) AppleWebKit/537.36 (KHTML, like Gecko) Chrome/101.0.4951.67 Safari/537.36" etag="dCkxA6UlPfMRrCR114TI" version="19.0.0" type="github">
  <diagram id="F_qfGeLqCIBA3pYGLKPT" name="Page-1">
    <mxGraphModel dx="792" dy="1097" grid="1" gridSize="10" guides="1" tooltips="1" connect="1" arrows="1" fold="1" page="1" pageScale="1" pageWidth="850" pageHeight="1100" math="0" shadow="0">
      <root>
        <mxCell id="0" />
        <mxCell id="1" parent="0" />
        <mxCell id="7_T2ha0sNJAwsiGO9liM-1" value="" style="rounded=1;whiteSpace=wrap;html=1;" vertex="1" parent="1">
          <mxGeometry x="140" y="130" width="110" height="50" as="geometry" />
        </mxCell>
        <mxCell id="7_T2ha0sNJAwsiGO9liM-3" value="" style="endArrow=classic;html=1;rounded=0;" edge="1" parent="1">
          <mxGeometry width="50" height="50" relative="1" as="geometry">
            <mxPoint x="194.5" y="180" as="sourcePoint" />
            <mxPoint x="194.5" y="250" as="targetPoint" />
          </mxGeometry>
        </mxCell>
        <mxCell id="7_T2ha0sNJAwsiGO9liM-4" value="" style="endArrow=classic;html=1;rounded=0;" edge="1" parent="1">
          <mxGeometry width="50" height="50" relative="1" as="geometry">
            <mxPoint x="200" y="250" as="sourcePoint" />
            <mxPoint x="270" y="310" as="targetPoint" />
            <Array as="points">
              <mxPoint x="270" y="250" />
            </Array>
          </mxGeometry>
        </mxCell>
        <mxCell id="7_T2ha0sNJAwsiGO9liM-5" value="" style="endArrow=classic;html=1;rounded=0;" edge="1" parent="1">
          <mxGeometry width="50" height="50" relative="1" as="geometry">
            <mxPoint x="190" y="250" as="sourcePoint" />
            <mxPoint x="120" y="310" as="targetPoint" />
            <Array as="points">
              <mxPoint x="120" y="250" />
            </Array>
          </mxGeometry>
        </mxCell>
        <mxCell id="7_T2ha0sNJAwsiGO9liM-6" value="" style="rounded=1;whiteSpace=wrap;html=1;" vertex="1" parent="1">
          <mxGeometry x="220" y="310" width="110" height="50" as="geometry" />
        </mxCell>
        <mxCell id="7_T2ha0sNJAwsiGO9liM-7" value="" style="endArrow=classic;html=1;rounded=0;" edge="1" parent="1">
          <mxGeometry width="50" height="50" relative="1" as="geometry">
            <mxPoint x="274.5" y="360" as="sourcePoint" />
            <mxPoint x="274.5" y="430" as="targetPoint" />
          </mxGeometry>
        </mxCell>
        <mxCell id="7_T2ha0sNJAwsiGO9liM-8" value="" style="endArrow=classic;html=1;rounded=0;" edge="1" parent="1">
          <mxGeometry width="50" height="50" relative="1" as="geometry">
            <mxPoint x="280" y="430" as="sourcePoint" />
            <mxPoint x="350" y="490" as="targetPoint" />
            <Array as="points">
              <mxPoint x="350" y="430" />
            </Array>
          </mxGeometry>
        </mxCell>
        <mxCell id="7_T2ha0sNJAwsiGO9liM-9" value="" style="endArrow=classic;html=1;rounded=0;" edge="1" parent="1">
          <mxGeometry width="50" height="50" relative="1" as="geometry">
            <mxPoint x="270" y="430" as="sourcePoint" />
            <mxPoint x="200" y="490" as="targetPoint" />
            <Array as="points">
              <mxPoint x="200" y="430" />
            </Array>
          </mxGeometry>
        </mxCell>
        <mxCell id="7_T2ha0sNJAwsiGO9liM-10" value="" style="rounded=1;whiteSpace=wrap;html=1;" vertex="1" parent="1">
          <mxGeometry x="295" y="490" width="110" height="50" as="geometry" />
        </mxCell>
        <mxCell id="7_T2ha0sNJAwsiGO9liM-11" value="" style="endArrow=classic;html=1;rounded=0;" edge="1" parent="1">
          <mxGeometry width="50" height="50" relative="1" as="geometry">
            <mxPoint x="349.5" y="540" as="sourcePoint" />
            <mxPoint x="349.5" y="610" as="targetPoint" />
          </mxGeometry>
        </mxCell>
        <mxCell id="7_T2ha0sNJAwsiGO9liM-12" value="" style="endArrow=classic;html=1;rounded=0;" edge="1" parent="1">
          <mxGeometry width="50" height="50" relative="1" as="geometry">
            <mxPoint x="355" y="610" as="sourcePoint" />
            <mxPoint x="425" y="670" as="targetPoint" />
            <Array as="points">
              <mxPoint x="425" y="610" />
            </Array>
          </mxGeometry>
        </mxCell>
        <mxCell id="7_T2ha0sNJAwsiGO9liM-13" value="" style="endArrow=classic;html=1;rounded=0;" edge="1" parent="1">
          <mxGeometry width="50" height="50" relative="1" as="geometry">
            <mxPoint x="345" y="610" as="sourcePoint" />
            <mxPoint x="275" y="670" as="targetPoint" />
            <Array as="points">
              <mxPoint x="275" y="610" />
            </Array>
          </mxGeometry>
        </mxCell>
      </root>
    </mxGraphModel>
  </diagram>
</mxfile>
